<?xml version="1.0" encoding="utf-8"?>
<!-- Generator: Adobe Illustrator 28.4.0, SVG Export Plug-In . SVG Version: 6.00 Build 0)  -->
<svg version="1.0" id="Calque_1" xmlns="http://www.w3.org/2000/svg" xmlns:xlink="http://www.w3.org/1999/xlink" x="0px" y="0px"
	 viewBox="0 0 232.34 64" style="enable-background:new 0 0 232.34 64;" xml:space="preserve">
<path d="M23.99,64c-8.15,0-16.31,0-24.46,0c0-21.92,0-43.84,0-65.76c8.15,0,16.31,0,24.46,0c0,14.8,0,29.61,0,44.48
	c11.67,0,23.25,0,34.82,0c0,4.27,0,8.47,0,12.74c-11.61,0-23.19,0-34.82,0C23.99,58.35,23.99,61.18,23.99,64z"/>
<path d="M71.97,20.86c-3.14,1.54-6.47,2.16-9.94,1.93c-9.18-0.6-16.67-7.06-18.66-16.01c-0.58-2.64-0.62-5.29-0.15-7.96
	c0.03-0.19,0.05-0.39,0.07-0.58c9.56,0,19.11,0,28.67,0C71.97,5.78,71.97,13.32,71.97,20.86z"/>
<rect x="72.22" y="55.38" width="160.12" height="8.62"/>
</svg>
