<?xml version="1.0" encoding="utf-8"?>
<!-- Generator: Adobe Illustrator 28.3.0, SVG Export Plug-In . SVG Version: 6.00 Build 0)  -->
<svg version="1.0" id="Calque_1" xmlns="http://www.w3.org/2000/svg" xmlns:xlink="http://www.w3.org/1999/xlink" x="0px" y="0px"
	 viewBox="0 0 452.69 198.33" style="enable-background:new 0 0 452.69 198.33;" xml:space="preserve">
<style type="text/css">
	.st0{fill:#FFFFFF;}
</style>
<path d="M42.18,198.33c-13.88,0-27.77,0-41.65,0c0-37.32,0-74.65,0-111.97c13.88,0,27.77,0,41.65,0c0,25.21,0,50.42,0,75.74
	c19.87,0,39.58,0,59.29,0c0,7.27,0,14.42,0,21.69c-19.77,0-39.49,0-59.29,0C42.18,188.72,42.18,193.52,42.18,198.33z"/>
<path class="st0" d="M42.18,198.33c0-4.81,0-9.61,0-14.54c19.8,0,39.51,0,59.29,0c0-7.27,0-14.42,0-21.69c-19.7,0-39.42,0-59.29,0
	c0-25.33,0-50.54,0-75.74c7.17,0,14.33,0,21.5,0c-0.04,0.33-0.06,0.67-0.12,0.99c-0.81,4.53-0.75,9.05,0.25,13.55
	c3.38,15.25,16.15,26.25,31.77,27.27c5.91,0.39,11.58-0.66,16.92-3.29c0,24.48,0,48.97,0,73.45
	C89.06,198.33,65.62,198.33,42.18,198.33z"/>
<path d="M112.5,124.88c-5.34,2.63-11.02,3.68-16.92,3.29c-15.63-1.02-28.39-12.01-31.77-27.27c-1-4.5-1.06-9.02-0.25-13.55
	c0.06-0.33,0.08-0.66,0.12-0.99c16.27,0,32.55,0,48.82,0C112.5,99.2,112.5,112.04,112.5,124.88z"/>
<rect x="141.02" y="181.56" width="311.67" height="16.78"/>
</svg>
